<?xml version="1.0" encoding="UTF-8"?><svg id="Layer_1" xmlns="http://www.w3.org/2000/svg" viewBox="0 0 890.26 802.4"><defs><style>.cls-1{fill:#fff;}.cls-2{fill:red;}.cls-3{fill:#c90000;}</style></defs><g><path class="cls-3" d="M377.8,529.31l167.47-199.35c13-15.22,21.65-26.24,25.93-33.07,4.28-6.82,6.42-15.94,6.42-27.35,0-23.95-12.84-35.92-38.53-35.92h-248.85l-40.1,53.05h244.45l-179.13,214.33c-2.85,3.33-6.18,7.26-9.99,11.78-3.81,4.52-6.78,8.25-8.92,11.18-2.14,2.94-3.85,6.07-5.12,9.4-1.27,3.33-1.9,6.98-1.9,10.95,0,11.57,3.88,20.81,11.66,27.71,7.77,6.9,19.35,10.34,34.73,10.34h260.72l43.45-53.05H377.8Z"/><path class="cls-2" d="M377.8,529.31l167.47-199.35c13-15.22,21.65-26.24,25.93-33.07,4.28-6.82,6.42-15.94,6.42-27.35,0-23.95-12.84-35.92-38.53-35.92h-248.85l-40.1,53.05h244.45l-179.13,214.33c-2.85,3.33-6.18,7.26-9.99,11.78-3.81,4.52-6.78,8.25-8.92,11.18-2.14,2.94-3.85,6.07-5.12,9.4-1.27,3.33-1.9,6.98-1.9,10.95,0,11.57,3.88,20.81,11.66,27.71,7.77,6.9,19.35,10.34,34.73,10.34h260.72l43.45-53.05H377.8Z"/></g><g><path class="cls-1" d="M872.88,483.07c-11.65-27.61-27.81-52.48-48.03-73.92-20.01-21.2-45.1-38.32-74.57-50.9-29.53-12.6-66.53-18.99-109.96-18.99h-14.27l-105.12,125.13h80.48c18.44,0,32.56,1.75,43.15,5.35,11.53,3.95,21.31,10.46,29.11,19.39,14.58,15.14,21.97,34.47,21.97,57.47,0,19.35-5.96,36.35-17.71,50.54-7.82,9.15-17.85,16.14-30,21-11.69,4.67-26.9,6.94-46.52,6.94H164.64L21.89,802.4H640.32c45.65,0,84.49-7.35,115.46-21.84,31.05-14.52,57.36-34.22,78.2-58.57,17.1-20.52,30.99-44.26,41.14-70.38,10.04-25.85,15.14-53.24,15.14-81.41,0-30.45-5.84-59.76-17.37-87.14Z"/><path class="cls-1" d="M279.12,339.25c-15,0-26.52-1.28-35.24-3.91-9.32-2.78-17.57-7.17-24.42-13.03-17.8-14.96-27.27-35.41-27.27-59.05,0-22.41,7.53-41.48,22.4-56.67,6.76-6.91,15.39-12.38,25.65-16.25,9.97-3.75,22.68-5.56,38.88-5.56h408.74L851.34,0H266.96c-52.41,0-94.6,6.42-125.4,19.09-30.57,12.57-56.2,29.66-76.17,50.81-20.25,21.46-36.41,46.33-48.02,73.91C5.84,171.15,0,200.89,0,232.19s5.66,62.14,16.81,89.11c11.24,27.17,27.17,51.79,47.37,73.18,19.92,21.12,45.72,38.2,76.7,50.78,29.36,11.93,68.73,18.25,116.92,18.98l104.46-124.99h-83.14Z"/></g></svg>