<?xml version="1.0" encoding="utf-8"?>
<!-- Generator: Adobe Illustrator 25.3.1, SVG Export Plug-In . SVG Version: 6.00 Build 0)  -->
<svg version="1.1" id="Layer_1" xmlns="http://www.w3.org/2000/svg" xmlns:xlink="http://www.w3.org/1999/xlink" x="0px" y="0px"
	 viewBox="0 0 995.7 827.9" style="enable-background:new 0 0 995.7 827.9;" xml:space="preserve">
<style type="text/css">
	.st0{fill:#C90000;}
	.st1{fill:#FF0000;}
	.st2{fill:#FFFFFF;}
</style>
<g>
	<g>
		<g>
			<path class="st0" d="M428.6,545.8l172.3-205.1c13.4-15.7,22.3-27,26.7-34c4.4-7,6.6-16.4,6.6-28.1c0-24.6-13.2-37-39.7-37H338.5
				l-41.3,54.6h251.5L364.4,516.6c-2.9,3.4-6.4,7.5-10.3,12.1c-3.9,4.7-7,8.5-9.2,11.5c-2.2,3-4,6.2-5.3,9.7c-1.3,3.4-2,7.2-2,11.3
				c0,11.9,4,21.4,12,28.5c8,7.1,19.9,10.6,35.7,10.6h268.3l44.7-54.6H428.6z"/>
		</g>
		<g>
			<path class="st1" d="M428.6,545.8l172.3-205.1c13.4-15.7,22.3-27,26.7-34c4.4-7,6.6-16.4,6.6-28.1c0-24.6-13.2-37-39.7-37H338.5
				l-41.3,54.6h251.5L364.4,516.6c-2.9,3.4-6.4,7.5-10.3,12.1c-3.9,4.7-7,8.5-9.2,11.5c-2.2,3-4,6.2-5.3,9.7c-1.3,3.4-2,7.2-2,11.3
				c0,11.9,4,21.4,12,28.5c8,7.1,19.9,10.6,35.7,10.6h268.3l44.7-54.6H428.6z"/>
		</g>
	</g>
	<g>
		<path class="st2" d="M938,498.2c-12-28.4-28.6-54-49.4-76.1c-20.6-21.8-46.4-39.4-76.7-52.4c-30.4-13-68.5-19.5-113.2-19.5H684
			L575.8,479h82.8c19,0,33.5,1.8,44.4,5.5c11.9,4.1,21.9,10.8,30,20c15,15.6,22.6,35.5,22.6,59.1c0,19.9-6.1,37.4-18.2,52
			c-8,9.4-18.4,16.6-30.9,21.6c-12,4.8-27.7,7.1-47.9,7.1H209.2L62.3,826.8h636.4c47,0,86.9-7.6,118.8-22.5
			c31.9-14.9,59-35.2,80.5-60.3c17.6-21.1,31.9-45.5,42.3-72.4c10.3-26.6,15.6-54.8,15.6-83.8C955.9,556.5,949.9,526.3,938,498.2z"
			/>
		<path class="st2" d="M327,350.2c-15.4,0-27.3-1.3-36.3-4c-9.6-2.9-18.1-7.4-25.1-13.4c-18.3-15.4-28.1-36.4-28.1-60.8
			c0-23.1,7.8-42.7,23-58.3c7-7.1,15.8-12.7,26.4-16.7c10.3-3.9,23.3-5.7,40-5.7h420.6L915.8,1.1H314.5c-53.9,0-97.3,6.6-129,19.6
			C154,33.7,127.7,51.3,107.1,73c-20.8,22.1-37.5,47.7-49.4,76.1c-11.9,28.1-17.9,58.7-17.9,90.9c0,33.1,5.8,63.9,17.3,91.7
			c11.6,28,28,53.3,48.7,75.3c20.5,21.7,47.1,39.3,78.9,52.3c30.2,12.3,70.7,18.8,120.3,19.5l107.5-128.6H327z"/>
	</g>
</g>
</svg>
