<?xml version="1.0" standalone="no"?>
<!DOCTYPE svg PUBLIC "-//W3C//DTD SVG 1.1//EN" "http://www.w3.org/Graphics/SVG/1.1/DTD/svg11.dtd" >
<svg xmlns="http://www.w3.org/2000/svg" xmlns:xlink="http://www.w3.org/1999/xlink" version="1.1">
<metadata>
Created by FontForge 20170731 at Sat May 28 00:18:42 2022
 By Aleksey,,,
Copyright (c) 2012 by SoftMaker Software GmbH and its licensors. All rights reserved.
</metadata>
<defs>
<font id="Boss" horiz-adv-x="604" >
  <font-face 
    font-family="Boss"
    font-weight="400"
    font-stretch="normal"
    units-per-em="2048"
    panose-1="0 0 0 0 0 0 0 0 0 0"
    ascent="1694"
    descent="-354"
    x-height="1092"
    cap-height="1475"
    bbox="-137.071 -555 2404 1929.02"
    underline-thickness="40"
    underline-position="-312"
    unicode-range="U+000D-EC04"
  />
<missing-glyph horiz-adv-x="593" 
 />
    <glyph glyph-name=".notdef" horiz-adv-x="593" 
 />
    <glyph glyph-name=".null" horiz-adv-x="0" 
 />
    <glyph glyph-name=".null" horiz-adv-x="0" 
 />
    <glyph glyph-name="nonmarkingreturn" horiz-adv-x="682" 
 />
    <glyph glyph-name="CR" unicode="&#xd;" horiz-adv-x="593" 
 />
    <glyph glyph-name="space" unicode=" " horiz-adv-x="593" 
 />
    <glyph glyph-name="exclam" unicode="!" 
d="M397 516h-176l-133 658v301h428v-310zM516 369v-369h-428v369h428z" />
    <glyph glyph-name="numbersign" unicode="#" horiz-adv-x="1234" 
d="M119 0l94 383h-213l51 207h215l72 295h-213l51 207h215l94 383h213l-96 -383h213l96 383h213l-96 -383h207l-51 -207h-207l-74 -295h211l-51 -207h-211l-94 -383h-213l94 383h-213l-94 -383h-213zM551 885l-74 -295h213l74 295h-213z" />
    <glyph glyph-name="dollar" unicode="$" horiz-adv-x="1630" 
d="M696 -354v354h-608v369h608v190h-297q-100 0 -176 57q-71 52 -103 111t-32 135v367q0 41 29 98q20 31 35 49q50 56 109.5 77.5t172.5 21.5h262v331h88v-331h119v331h88v-331h473v-383h-473v-207h223h46q24 0 36 -2q246 -35 246 -260v-342q0 -96 -29 -154t-96 -98
q-48 -26 -133 -31l-104 2h-189v-354h-88v354h-119v-354h-88zM784 559v-190h306v190h-306zM535 1092v-205h368v205h-368z" />
    <glyph glyph-name="percent" unicode="%" horiz-adv-x="1714" 
d="M215 850q-40 26 -56 59t-16 90v322q0 74 66 125q43 29 100 29h377q86 0 135 -64q31 -42 31 -104v-306q0 -48 -21 -86q-52 -88 -145 -88h-377q-53 0 -94 23zM1626 1475l-1382 -1475h-156l1382 1475h156zM893 74q-21 38 -21 100v322q0 34 23 75q49 78 143 78h377
q87 0 135 -65q31 -42 31 -103v-307q0 -44 -20 -86q-50 -88 -146 -88h-377q-54 0 -85.5 16.5t-59.5 57.5zM360 1090q0 -15 11 -28t26 -18q13 -3 25 0h160q21 -5 37 7.5t16 33.5v127q0 31 -37 41q-6 4 -20 4h-170q-22 0 -35 -10.5t-13 -27.5v-129zM1090 262q0 -21 13.5 -33
t37.5 -12h170q20 -6 35.5 6.5t15.5 34.5v127q0 18 -15.5 31.5t-39.5 13.5h-170q-21 0 -34 -11.5t-13 -27.5v-129z" />
    <glyph glyph-name="ampersand" unicode="&#x26;" horiz-adv-x="1814" 
d="M117 190q-29 62 -29 105v162q0 79 35 147q17 34 37.5 57t64.5 60l33 29l-12 12q-11 10 -21 20q-64 67 -90 129q-13 36 -18 70v119q0 8 1 24.5t1 24.5q4 100 31.5 158t91.5 106q83 62 207 62h1003v-383h-907v-193h317v-295h-317v-235h465v530h805v-287h-355v-266
q0 -90 -8 -132.5t-31 -80.5q-44 -71 -106 -102t-158 -31h-608h-86h-41q-96 4 -158 35.5t-110 97.5q-19 22 -37 57z" />
    <glyph glyph-name="parenleft" unicode="(" horiz-adv-x="688" 
d="M485 1622q12 13 36 38.5t36 39.5l117 -103q-38 -48 -82 -120q-98 -164 -135 -293t-47 -348q-6 -104 0 -205q11 -221 44 -341.5t138 -314.5q48 -82 76 -125l-111 -86q-1 1 -70 76q-85 94 -146 169.5t-111.5 148.5t-82.5 138.5t-53.5 131.5t-29.5 137t-7 146t11 166
q12 111 31 184t67.5 159.5t118.5 172.5t200 229z" />
    <glyph glyph-name="parenright" unicode=")" horiz-adv-x="688" 
d="M131 -236l-117 103q35 44 82 121q99 165 136 293t47 348q6 103 0 205q-11 220 -44 340t-139 315q-48 82 -76 125l111 86q1 -1 70 -76q198 -220 291.5 -370.5t123 -302t5.5 -363.5q-16 -148 -51.5 -244.5t-115.5 -206.5t-251 -297q-23 -27 -72 -76z" />
    <glyph glyph-name="asterisk" unicode="*" horiz-adv-x="950" 
d="M387 920l-258 -160l-70 125l260 168l-260 145l62 127l266 -145v295h168v-295l242 145l73 -127l-237 -145l258 -168l-72 -125l-266 160v-310h-166v310zM387 1096v-86l82 -52l82 52v86l-82 49z" />
    <glyph glyph-name="plus" unicode="+" horiz-adv-x="1660" 
d="M684 170v420h-422v295h422v420h293v-422h422v-293h-422v-420h-293z" />
    <glyph glyph-name="comma" unicode="," 
d="M317 -254h-229v129h266v125h-266v369h428v-461q0 -41 -26 -79.5t-72 -64.5q-32 -18 -101 -18z" />
    <glyph glyph-name="hyphen" unicode="-" horiz-adv-x="841" 
d="M754 797v-295h-666v295h666z" />
    <glyph glyph-name="period" unicode="." 
d="M516 369v-369h-428v369h428z" />
    <glyph glyph-name="slash" unicode="/" horiz-adv-x="1075" 
d="M1075 1556l-999 -1769l-76 45l999 1770z" />
    <glyph glyph-name="zero" unicode="0" horiz-adv-x="1660" 
d="M90 379q-2 12 -2 37v647q0 65 14 117q39 146 150 225q97 70 237 70h633h25q222 -13 324 -105t102 -274v-734q0 -38 -12 -81q-14 -57 -45 -105q-64 -94 -137 -135t-173 -41h-809q-45 0 -106 25q-93 41 -142.5 124.5t-58.5 229.5zM535 1092v-723h591v723h-591z" />
    <glyph glyph-name="one" unicode="1" horiz-adv-x="1660" 
d="M604 0v958h-166v195l428 322h183v-1475h-445z" />
    <glyph glyph-name="two" unicode="2" horiz-adv-x="1660" 
d="M1487 369v-369h-1358v494q0 45 43 122q55 98 168 156q5 2 15.5 6t15.5 6l6 2l69 25l613 207q14 7 22 18q7 11 5 24t-13 21q-18 11 -29 11h-819v383h967q110 0 193.5 -63t125.5 -181q22 -67 19 -150q-4 -133 -63.5 -220.5t-163.5 -123.5l-717 -243v-125h901z" />
    <glyph glyph-name="three" unicode="3" horiz-adv-x="1662" 
d="M1159 0h-995v369h862v213h-715v311h715v199h-848v383h975q141 0 219 -49.5t113 -165.5q14 -46 14 -103v-168q0 -56 -35 -127q-15 -33 -71 -92l-33 -35l16 -12q9 -10 19 -18q51 -50 73.5 -96.5t28.5 -116.5q2 -10 2 -31v-203q0 -35 -26 -86q-12 -28 -48 -70
q-50 -55 -110.5 -78.5t-155.5 -23.5z" />
    <glyph glyph-name="four" unicode="4" horiz-adv-x="1662" 
d="M934 0v330h-944v438l944 707h438v-805h197v-340h-187v-330h-448zM934 1059l-528 -389h528v389z" />
    <glyph glyph-name="five" unicode="5" horiz-adv-x="1660" 
d="M1217 0h-1070v369h893v192h-893v914h1276v-383h-829v-218h674q45 0 116 -53q30 -19 46 -43q46 -57 63.5 -99t17.5 -93v-269q0 -22 -2 -34q-8 -62 -30 -105.5t-74 -95.5q-82 -82 -188 -82z" />
    <glyph glyph-name="six" unicode="6" horiz-adv-x="1660" 
d="M164 156q-44 59 -62 106t-18 107v712q0 92 29.5 160.5t95.5 130.5q62 56 122.5 79.5t147.5 23.5h1037v-383h-986v-209h672q74 0 146 -21q95 -31 137.5 -68.5t73.5 -119.5q18 -52 18 -119v-229q0 -41 -8 -72q-10 -39 -41 -90q-58 -88 -116 -126t-130 -38h-872
q-44 0 -125 45q-55 30 -121 111zM528 565v-196h600v196h-600z" />
    <glyph glyph-name="seven" unicode="7" horiz-adv-x="1660" 
d="M475 0l569 1092h-892v383h1357v-392l-532 -1083h-502z" />
    <glyph glyph-name="eight" unicode="8" horiz-adv-x="1658" 
d="M362 10q-112 28 -174.5 114.5t-62.5 223.5v176q0 54 49 123q16 20 23 27l6 4l57 41l35 26l-4 3q-19 10 -37 20q-51 31 -75.5 58t-41.5 73q-12 32 -12 90v199q0 78 51 151q35 52 72 76.5t112 44.5q56 15 117 15h713q76 0 126.5 -18t104.5 -64q61 -53 87 -100.5t26 -102.5
v-201q0 -29 -43 -108q-40 -69 -111 -119q-20 -15 -24 -17l16 -10q13 -10 25 -18q71 -54 98 -101q39 -63 39 -104v-199q0 -58 -19 -100.5t-71 -95.5q-60 -63 -111 -86q-69 -31 -100 -31h-799q-27 0 -72 10zM567 1092v-207h516v207h-516zM567 590v-221h516v221h-516z" />
    <glyph glyph-name="nine" unicode="9" horiz-adv-x="1660" 
d="M104 795q-20 58 -20 120v230q0 32 10 74q11 45 39 90q59 89 117.5 127.5t128.5 38.5h872q42 0 123 -48q52 -30 92 -73q5 -6 15.5 -17.5t15.5 -17.5q44 -58 62 -106.5t18 -108.5v-711q0 -108 -38.5 -185.5t-125.5 -139.5q-51 -37 -103.5 -52.5t-125.5 -15.5h-1039v369h985
v221h-669q-78 0 -150 20q-90 27 -133.5 67t-73.5 118zM545 1092v-197h516v197h-516z" />
    <glyph glyph-name="colon" unicode=":" 
d="M516 369v-369h-428v369h428zM516 1092v-369h-428v369h428z" />
    <glyph glyph-name="semicolon" unicode=";" 
d="M516 1092v-369h-428v369h428zM317 -254h-229v129h266v125h-266v369h428v-461q0 -41 -26 -79.5t-72 -64.5q-32 -18 -101 -18z" />
    <glyph glyph-name="equal" unicode="=" horiz-adv-x="1660" 
d="M1397 676v-293h-1137v293h1137zM1397 1092v-293h-1135v293h1135z" />
    <glyph glyph-name="question" unicode="?" horiz-adv-x="1300" 
d="M438 1106v-158h-395v295q0 25 45 92q29 46 107 92q77 48 225 48h534q67 0 113.5 -19t89.5 -63q43 -43 60.5 -80t17.5 -82v-205q0 -96 -68.5 -169t-199.5 -109q-90 -24 -126 -56.5t-36 -83.5v-92h-428v90q0 22 12 64q51 163 199 233l4 2q63 19 129 39q70 22 96.5 48
t26.5 73v41h-406zM805 369v-369h-428v369h428z" />
    <glyph glyph-name="A" unicode="A" horiz-adv-x="1556" 
d="M530 569v-569h-442v1106q0 17 4 49q22 132 74.5 199t161.5 104q55 17 161 17h641q82 0 138 -26t112 -89q48 -53 68 -108.5t20 -137.5v-1114h-442v569h-496zM530 1092v-207h496v207h-496z" />
    <glyph glyph-name="B" unicode="B" horiz-adv-x="1630" 
d="M1059 0h-971v1475h1104q76 0 126.5 -18t104.5 -64q61 -53 87 -100.5t26 -102.5v-201q0 -30 -41 -108q-25 -48 -84 -99l-27 -24l-18 -13q34 -16 76 -53q36 -36 61 -78q39 -66 39 -102v-199q0 -144 -162 -250q-61 -40 -161 -57q-70 -13 -113 -10zM530 1092v-211h549v211
h-549zM530 616v-233h549v233h-549z" />
    <glyph glyph-name="C" unicode="C" horiz-adv-x="1480" 
d="M90 381q-2 10 -2 35v647q0 65 14 117q39 146 150 225q97 70 237 70h904v-383h-863v-709h863v-383h-987q-54 0 -111 23q-94 39 -145 125t-60 233z" />
    <glyph glyph-name="D" unicode="D" horiz-adv-x="1630" 
d="M1176 0h-1088v1475h1004h24q222 -12 324 -104.5t102 -274.5v-734q0 -45 -10 -81q-15 -62 -47 -105q-64 -95 -136 -135.5t-173 -40.5zM530 1092v-709h570v709h-570z" />
    <glyph glyph-name="E" unicode="E" horiz-adv-x="1449" 
d="M1362 383v-383h-1274v1475h1274v-383h-832v-199h832v-281h-832v-229h832z" />
    <glyph glyph-name="F" unicode="F" horiz-adv-x="1409" 
d="M532 612v-612h-442v1475h1274v-383h-832v-199h832v-281h-832z" />
    <glyph glyph-name="G" unicode="G" horiz-adv-x="1646" 
d="M90 379q-2 12 -2 37v647q0 65 14 117q39 146 150 225q97 70 237 70h1067v-383h-1026v-709h586v496h443v-531q0 -84 -16.5 -135t-59.5 -102q-53 -62 -123.5 -86.5t-206.5 -24.5h-756q-45 0 -106 25q-93 41 -142.5 124.5t-58.5 229.5z" />
    <glyph glyph-name="H" unicode="H" horiz-adv-x="1628" 
d="M530 598v-598h-442v1475h442v-560h568v560h442v-1475h-442v598h-568z" />
    <glyph glyph-name="I" unicode="I" horiz-adv-x="618" 
d="M530 1475v-1475h-442v1475h442z" />
    <glyph glyph-name="J" unicode="J" horiz-adv-x="1333" 
d="M59 176q-55 83 -55 203v280h442v-276h355v1092h442v-1199q0 -78 -74 -170q-87 -106 -247 -106h-629q-44 0 -125 53q-51 35 -109 123z" />
    <glyph glyph-name="K" unicode="K" horiz-adv-x="1622" 
d="M530 582v-582h-442v1475h442v-723l498 723h506l-436 -596h45q184 -7 282.5 -108t106.5 -284v-45l2 -45v-397h-442v582h-562z" />
    <glyph glyph-name="L" unicode="L" horiz-adv-x="1267" 
d="M1268 383v-383h-1180v1475h442v-1092h738z" />
    <glyph glyph-name="M" unicode="M" horiz-adv-x="1886" 
d="M530 1032v-1032h-442v1475h619l237 -996l236 996h618v-1475h-442v1032l-283 -1032h-266z" />
    <glyph glyph-name="N" unicode="N" horiz-adv-x="1658" 
d="M530 952v-952h-442v1475h563l477 -734v734h443v-1475h-443z" />
    <glyph glyph-name="O" unicode="O" horiz-adv-x="1660" 
d="M90 379q-2 12 -2 37v647q0 65 14 117q39 146 150 225q97 70 237 70h633h25q222 -13 324 -105t102 -274v-734q0 -38 -12 -81q-14 -57 -45 -105q-64 -94 -137 -135t-173 -41h-809q-45 0 -106 25q-93 41 -142.5 124.5t-58.5 229.5zM530 1092v-709h600v709h-600z" />
    <glyph glyph-name="P" unicode="P" horiz-adv-x="1576" 
d="M532 475v-475h-442v1475h1073q94 0 149 -18.5t113 -70.5q57 -52 82 -117t25 -169v-277q0 -64 -17.5 -112.5t-60.5 -102.5q-56 -71 -128 -102t-189 -31h-605zM532 1092v-308h558v308h-558z" />
    <glyph glyph-name="Q" unicode="Q" horiz-adv-x="1650" 
d="M90 379q-2 12 -2 37v657q0 64 14 113q38 136 141 212.5t246 76.5h633q33 -3 68 -5q162 -9 236.5 -54t111.5 -154q21 -68 21 -154v-746q0 -78 -37 -137l-11 -16l-8 -14l-30 -31h178v-367h-351q-45 0 -80.5 17t-80.5 61q-57 54 -78 125h-664q-45 0 -106 25
q-93 41 -142.5 124.5t-58.5 229.5zM530 1092v-709h586v709h-586z" />
    <glyph glyph-name="R" unicode="R" horiz-adv-x="1607" 
d="M530 582v-582h-442v1475h1143q59 0 94 -10.5t78 -41.5q61 -43 89 -97.5t28 -131.5v-227q0 -43 -35 -107q-21 -42 -101 -98q-3 -2 -8.5 -6t-10.5 -6.5l-9 -4.5l-13 -8l-14 -6l19 -12q12 -8 24 -14q63 -44 90 -80q33 -42 45.5 -78.5t12.5 -85.5v-461h-443v582h-547z
M530 1092v-203h547v203h-547z" />
    <glyph glyph-name="S" unicode="S" horiz-adv-x="1632" 
d="M1180 0h-1092v383h1010v176h-699q-100 0 -176 57q-71 52 -103 111t-32 135v367q0 41 29 98q20 31 35 49q50 56 109.5 77.5t172.5 21.5h1030v-383h-929v-207h677h9q19 -2 39 -2q103 -4 165 -39t95 -103q24 -50 24 -118v-342q0 -96 -29 -154t-98 -98q-48 -26 -133 -31z" />
    <glyph glyph-name="T" unicode="T" horiz-adv-x="1327" 
d="M442 0v1092h-442v383h1327v-383h-442v-1092h-443z" />
    <glyph glyph-name="U" unicode="U" horiz-adv-x="1665" 
d="M90 377q0 7 -1 20t-1 19v1059h442v-1092h605v1092h442v-1067q0 -84 -21 -146t-71 -125q-106 -137 -228 -137h-782q-76 0 -105.5 4.5t-78.5 24.5q-94 40 -142.5 120t-58.5 228z" />
    <glyph glyph-name="V" unicode="V" horiz-adv-x="1564" 
d="M1038 0h-512l-557 1475h461l352 -1004l353 1004h460z" />
    <glyph glyph-name="W" unicode="W" horiz-adv-x="2056" 
d="M784 0h-446l-338 1475h446l195 -779l164 779h444l178 -779l183 779h446l-338 -1475h-446l-244 1040z" />
    <glyph glyph-name="X" unicode="X" horiz-adv-x="1622" 
d="M731 575l-237 -575h-494l360 737l-360 738h494l237 -576h117l272 576h496l-363 -738l369 -737h-502l-272 575h-117z" />
    <glyph glyph-name="Y" unicode="Y" horiz-adv-x="1546" 
d="M535 0v526l-582 949h528l312 -592l272 592h528l-577 -949v-526h-481z" />
    <glyph glyph-name="Z" unicode="Z" horiz-adv-x="1570" 
d="M1483 383v-383h-1395v391l784 701h-784v383h1374v-388l-788 -704h809z" />
    <glyph glyph-name="underscore" unicode="_" horiz-adv-x="1179" 
d="M1180 74v-74h-1180v74h1180z" />
    <glyph glyph-name="grave" unicode="`" horiz-adv-x="534" 
d="M422 1184h-254l-287 340h361z" />
    <glyph glyph-name="a" unicode="a" horiz-adv-x="1474" 
d="M205 96q-61 57 -89 117t-28 135v391q0 31 2 45q18 142 119 230q89 78 188 78h340q69 0 105.5 -15t79.5 -59l16 -17l2 -2v93h444v-723h91v-369h-314q-58 0 -114 33q-39 19 -82 73l-17 21l-8 14l-10 -16q-6 -11 -12 -19q-39 -58 -84.5 -82t-112.5 -24h-272q-76 0 -131 21.5
t-113 74.5zM516 723v-354h442v354h-442z" />
    <glyph glyph-name="b" unicode="b" horiz-adv-x="1390" 
d="M262 0h-262v369h88v1106h428v-498q19 15 39 29q63 50 112 68t119 18h220q101 0 188 -78q63 -55 86 -110t23 -148v-387q0 -79 -15 -131q-29 -108 -81 -156.5t-165 -71.5l-47 -10h-6h-254q-75 0 -135 31q-59 35 -98 100l-10 19l-9 16l-6 -14q-6 -11 -10 -21
q-35 -68 -84.5 -99.5t-120.5 -31.5zM516 723v-354h358v354h-358z" />
    <glyph glyph-name="c" unicode="c" horiz-adv-x="1165" 
d="M215 49q-71 55 -99 123.5t-28 196.5v422q0 94 59 172q97 129 252 129h676v-369h-559v-354h561v-369h-647h-96q-27 0 -80 27q-17 7 -39 22z" />
    <glyph glyph-name="d" unicode="d" horiz-adv-x="1378" 
d="M100 240q-12 50 -12 129v385q0 91 24 148t85 112q48 42 90.5 60t95.5 18h217q29 0 88 -15q27 -5 74 -28l33 -17l28 -16l25 -12l14 -11v482h428v-1106h88v-369h-252q-72 0 -120.5 31t-83.5 100l-11 21l-6 14l-6 -12q-8 -13 -14 -23q-28 -47 -57.5 -73.5t-71.5 -41.5
q-41 -16 -105 -16h-252h-6q-24 6 -47 10q-114 25 -165.5 72.5t-80.5 157.5zM516 723v-354h346v354h-346z" />
    <glyph glyph-name="e" unicode="e" horiz-adv-x="1452" 
d="M215 49q-71 55 -99 124t-28 198v420q0 94 59 172q97 129 254 129h676q23 0 33 -2q66 -3 105.5 -18.5t80.5 -55.5q68 -65 68 -164v-387h-848v-96h666v-369h-752h-96q-27 0 -80 27q-17 7 -39 22zM516 723v-96h422v96h-422z" />
    <glyph glyph-name="f" unicode="f" horiz-adv-x="698" 
d="M326 -354h-299v354h88v545h-88v178h88v446q0 95 33 158.5t102 104.5q67 43 168 43h272v-342h-147v-410h147v-178h-147v-697q0 -33 -19 -79q-19 -39 -48 -64t-79 -43q-47 -16 -71 -16z" />
    <glyph glyph-name="g" unicode="g" horiz-adv-x="1384" 
d="M88 285v24v504q0 64 13 103t51 83q48 60 141 84q44 9 127 9h233q71 0 114.5 -25t78.5 -86l24 -47v158h426v-1102q0 -85 -37 -150t-126 -127q-94 -67 -211 -67h-455v284h403v181q-27 -59 -100 -93q-40 -18 -98 -18h-271q-129 0 -215 70q-54 44 -74 87t-24 128zM516 725
v-356h354v356h-354z" />
    <glyph glyph-name="h" unicode="h" horiz-adv-x="1378" 
d="M516 723v-723h-428v1475h428v-498q28 79 113 104q32 11 100 11h252q82 0 147 -33q85 -41 123.5 -106t38.5 -169v-415h88v-369h-229q-83 0 -135 24.5t-99 88.5q-53 70 -53 194v416h-346z" />
    <glyph glyph-name="i" unicode="i" 
d="M516 1475v-250h-428v250h428zM516 1092v-1092h-428v1092h428z" />
    <glyph glyph-name="j" unicode="j" 
d="M516 1475v-250h-428v250h428zM211 -354h-211v354h88v1092h428v-1104v-86q0 -27 -22 -78q-7 -19 -19 -33q-50 -77 -111.5 -111t-152.5 -34z" />
    <glyph glyph-name="k" unicode="k" horiz-adv-x="1310" 
d="M516 440v-440h-428v1475h428v-826h217v443h414v-310q0 -5 -1 -13.5t-1 -12.5q-9 -48 -30.5 -79t-63.5 -59q-3 -2 -9.5 -6t-9.5 -6q48 -3 90.5 -30t69.5 -74q33 -54 33 -88l2 -45h84v-369h-201q-83 0 -126 16t-93 66q-60 60 -60 137v221h-315z" />
    <glyph glyph-name="l" unicode="l" 
d="M516 1475v-1475h-428v1475h428z" />
    <glyph glyph-name="m" unicode="m" horiz-adv-x="1998" 
d="M516 723v-723h-428v1092h428v-123q2 6 10 16.5t9 13.5q36 48 87.5 70.5t131.5 22.5h200q37 0 95 -25q41 -18 94 -68l20 -22l15 -14q8 12 12 16q43 62 94.5 87.5t134.5 25.5h267q92 0 163 -80q50 -56 58 -150q2 -14 2 -45v-448h90v-369h-248q-100 0 -180 80q-48 46 -68 99
t-20 134v410h-281v-723h-405v723h-281z" />
    <glyph glyph-name="n" unicode="n" horiz-adv-x="1452" 
d="M516 723v-723h-428v1092h428v-146q27 67 113 111q10 7 30 14q58 21 138 21h307q53 0 117 -37q143 -80 143 -250v-436h88v-369h-264q-67 0 -116.5 27t-90.5 88q-45 62 -45 176v432h-420z" />
    <glyph glyph-name="o" unicode="o" horiz-adv-x="1404" 
d="M229 63q-141 104 -141 271v416q0 72 19 124t65 103q55 61 123 88t172 27h545q104 0 178 -58q71 -56 99 -115t28 -155v-416q0 -87 -15 -135.5t-53 -95.5q-52 -64 -115 -90.5t-173 -26.5h-551q-100 0 -181 63zM516 723v-354h373v354h-373z" />
    <glyph glyph-name="p" unicode="p" horiz-adv-x="1353" 
d="M516 96v-450h-428v1446h428v-152q6 15 14 31q22 46 47.5 70t65.5 38q37 13 98 13h193h2q26 -5 53 -7q84 -9 133.5 -36.5t91.5 -90.5q42 -64 50 -153q2 -12 2 -39v-502q0 -46 -31 -106q-19 -40 -70 -82q-45 -38 -87 -54t-117 -20q-14 -2 -48 -2h-170q-57 0 -96.5 15
t-97.5 57zM516 737v-368h381v368h-381z" />
    <glyph glyph-name="q" unicode="q" horiz-adv-x="1370" 
d="M119 156q-31 60 -31 108v465q0 90 23 154q34 86 87.5 134.5t135.5 67.5l35 7h243q138 0 224 -99q3 -4 9 -11t9 -11q36 62 93 91.5t147 29.5h276v-314h-90v-1132h-426v450q-19 -12 -35 -24q-55 -40 -100 -56t-109 -16h-170q-96 0 -149 16.5t-103 59.5q-48 40 -69 80z
M457 723v-354h397v354h-397z" />
    <glyph glyph-name="r" unicode="r" horiz-adv-x="925" 
d="M516 723v-723h-428v1092h428v-80q22 35 68 57q50 23 104 23h238v-369h-410z" />
    <glyph glyph-name="s" unicode="s" horiz-adv-x="1394" 
d="M1040 0h-952v369h825v77h-540q-63 0 -96.5 9t-71.5 37q-117 80 -117 219v143q0 42 21 88q9 24 24 45q43 57 88.5 81t110.5 24h815v-369h-617v-78h609q81 0 137 -82q31 -47 31 -84v-289q0 -51 -37 -102q-32 -47 -82 -68q-30 -12 -57 -16t-91 -4z" />
    <glyph glyph-name="t" unicode="t" horiz-adv-x="940" 
d="M88 612h-88v176h88v687h428v-687h424v-176h-424v-243h424v-369h-559q-25 0 -109 35q-45 19 -74.5 42t-56.5 62q-16 26 -18 33q-35 63 -35 98v342z" />
    <glyph glyph-name="u" unicode="u" horiz-adv-x="1447" 
d="M88 723h-88v369h281q81 0 141 -54q49 -44 68 -85.5t24 -112.5q2 -14 2 -39v-432h416v723h428v-1092h-428v150q-19 -49 -61.5 -86t-102.5 -54q-31 -10 -96 -10h-310q-58 0 -122 37q-79 44 -115.5 104t-36.5 144v438z" />
    <glyph glyph-name="v" unicode="v" horiz-adv-x="1357" 
d="M909 0h-473l-471 1092h484l239 -633l232 633h464z" />
    <glyph glyph-name="w" unicode="w" horiz-adv-x="1796" 
d="M735 0h-442l-293 1092h442l156 -590l145 590h306l141 -590l158 590h448l-319 -1092h-443l-137 651z" />
    <glyph glyph-name="x" unicode="x" horiz-adv-x="1431" 
d="M639 446l-188 -446h-480l285 586l-225 506h438l178 -402h135l179 402h438l-225 -506l284 -586h-479l-188 446h-152z" />
    <glyph glyph-name="y" unicode="y" horiz-adv-x="1226" 
d="M164 0h276l-471 1092h420l234 -625l206 625h406l-520 -1278q-24 -57 -62 -95q-41 -40 -84.5 -56.5t-107.5 -16.5h-297v354z" />
    <glyph glyph-name="z" unicode="z" horiz-adv-x="1308" 
d="M1221 369v-369h-1133v188q0 83 31 144q22 43 50.5 73.5t80.5 63.5l395 254h-557v369h1129v-134v-57q0 -19 -11 -67q-15 -56 -45.5 -96t-91.5 -81l-428 -288h580z" />
    <glyph glyph-name="nbspace" unicode="&#xa0;" horiz-adv-x="593" 
 />
    <glyph glyph-name="exclamdown" unicode="&#xa1;" 
d="M516 301v-301h-428v309l119 649h176zM516 1475v-369h-428v369h428z" />
    <glyph glyph-name="cent" unicode="&#xa2;" horiz-adv-x="1370" 
d="M152 84q-34 37 -49 82.5t-15 116.5v508q0 72 19.5 122t68.5 95q48 46 100.5 65t135.5 19h622l125 272h123l-500 -995h318v-369h-490l-217 -451h-129l219 451h-30h-97q-69 0 -114.5 18.5t-89.5 65.5zM496 756v-387h161l201 387h-362z" />
    <glyph glyph-name="sterling" unicode="&#xa3;" horiz-adv-x="1628" 
d="M1163 0h-1075v369h102v268h-102v174h102v348q0 109 52 180t119 103.5t169 32.5h594q58 0 119.5 -32t110.5 -89q45 -53 64.5 -110.5t19.5 -141.5v-287h-430v277h-387v-281h200v-174h-200v-268h475v252h444v-326q0 -42 -31 -100q-20 -36 -32 -52q-59 -77 -131.5 -110
t-182.5 -33z" />
    <glyph glyph-name="yen" unicode="&#xa5;" horiz-adv-x="1792" 
d="M74 612h528l-528 863h528l311 -592l273 592h528l-522 -863h526v-57l-563 4l-18 -33v-28h579v-62h-579v-436h-482v434h-581v66l583 -2l-2 28l-18 31h-563v55z" />
    <glyph glyph-name="dieresis" unicode="&#xa8;" horiz-adv-x="890" 
d="M184 1171q-78 3 -130 53t-54 119q-2 72 52 126t134 55q85 0 142 -54q55 -53 54 -126t-58 -123q-63 -53 -140 -50zM709 1171q-83 -3 -140 47.5t-59 122.5q-2 75 55 129.5t140 53.5q76 0 135 -56q52 -51 52 -121.5t-52 -119.5q-56 -53 -131 -56z" />
    <glyph glyph-name="sfthyphen" unicode="&#xad;" horiz-adv-x="841" 
d="M754 797v-295h-666v295h666z" />
    <glyph glyph-name="macron" unicode="&#xaf;" horiz-adv-x="694" 
d="M694 1405v-199h-694v199h694z" />
    <glyph glyph-name="degree" unicode="&#xb0;" horiz-adv-x="499" 
d="M250 1184q-111 0 -180.5 60t-69.5 140q0 81 70 141.5t182 59.5q103 0 182 -67q65 -52 64.5 -135.5t-66.5 -135.5q-78 -63 -182 -63zM160 1384q-1 -35 24.5 -59.5t63.5 -26.5q40 0 65 25q26 25 26 59.5t-26 59.5q-26 26 -63 26q-38 0 -64 -25t-26 -59z" />
    <glyph glyph-name="acute" unicode="&#xb4;" horiz-adv-x="534" 
d="M657 1524l-292 -340h-252l200 340h344z" />
    <glyph glyph-name="periodcentered" unicode="&#xb7;" 
d="M516 811v-369h-428v369h428z" />
    <glyph glyph-name="cedilla" unicode="&#xb8;" horiz-adv-x="276" 
d="M109 -305h-109v229h276v-207q0 -104 -57.5 -173.5t-161.5 -92.5q-27 -6 -53 -6v143h19q73 9 86 86v21z" />
    <glyph glyph-name="questiondown" unicode="&#xbf;" horiz-adv-x="1298" 
d="M143 82q-43 43 -60 80t-17 82v205q0 96 68.5 169t199.5 109q90 24 126 56t36 83v92h428v-90q0 -10 -15 -63q-47 -159 -196 -234l-4 -2q-65 -21 -131 -39q-70 -22 -95.5 -47t-25.5 -73v-41h405v157h395v-295q0 -25 -45 -92q-33 -48 -108 -92q-75 -47 -223 -47h-535
q-68 0 -114 18.5t-89 63.5zM924 1475v-383h-428v383h428z" />
    <glyph glyph-name="Agrave" unicode="&#xc0;" horiz-adv-x="1556" 
d="M530 569v-569h-442v1106q0 17 4 49q22 132 74.5 199t161.5 104q55 17 161 17h641q82 0 138 -26t112 -89q48 -53 68 -108.5t20 -137.5v-1114h-442v569h-496zM920 1552h-254l-287 340h360zM530 1092v-207h496v207h-496z" />
    <glyph glyph-name="Aacute" unicode="&#xc1;" horiz-adv-x="1556" 
d="M530 569v-569h-442v1106q0 17 4 49q22 132 74.5 199t161.5 104q55 17 161 17h641q82 0 138 -26t112 -89q48 -53 68 -108.5t20 -137.5v-1114h-442v569h-496zM1217 1892l-293 -340h-252l200 340h345zM530 1092v-207h496v207h-496z" />
    <glyph glyph-name="Acircumflex" unicode="&#xc2;" horiz-adv-x="1556" 
d="M530 569v-569h-442v1106q0 17 4 49q22 132 74.5 199t161.5 104q55 17 161 17h641q82 0 138 -26t112 -89q48 -53 68 -108.5t20 -137.5v-1114h-442v569h-496zM797 1743l-109 -191h-274l243 338h277l242 -338h-275zM530 1092v-207h496v207h-496z" />
    <glyph glyph-name="Atilde" unicode="&#xc3;" horiz-adv-x="1556" 
d="M530 569v-569h-442v1106q0 17 4 49q22 132 74.5 199t161.5 104q55 17 161 17h641q82 0 138 -26t112 -89q48 -53 68 -108.5t20 -137.5v-1114h-442v569h-496zM578 1550l-162 64q8 34 14 49q52 128 146.5 169t209.5 -11l31 -13l27 -12q20 -8 43 -18q65 -28 98 -18.5t64 63.5
q1 3 3 8t3 8l162 -63q-14 -36 -19 -47q-52 -122 -129.5 -162t-185.5 -4q-19 4 -33 12l-25 10l-34 14q-25 11 -48 23q-60 27 -95.5 14t-63.5 -73q-1 -2 -3 -6.5t-3 -6.5zM530 1092v-207h496v207h-496z" />
    <glyph glyph-name="Adieresis" unicode="&#xc4;" horiz-adv-x="1556" 
d="M530 569v-569h-442v1106q0 17 4 49q22 132 74.5 199t161.5 104q55 17 161 17h641q82 0 138 -26t112 -89q48 -53 68 -108.5t20 -137.5v-1114h-442v569h-496zM543 1548q-78 3 -130.5 54t-54.5 120q-2 71 52.5 124.5t136.5 54.5q77 3 141 -54q54 -51 52.5 -126t-58.5 -124
q-58 -52 -139 -49zM1067 1548q-82 -3 -139.5 48.5t-59.5 123.5q-2 74 55 128t140 53q78 0 137 -56q51 -49 50.5 -120.5t-52.5 -120.5q-56 -53 -131 -56zM530 1092v-207h496v207h-496z" />
    <glyph glyph-name="Aring" unicode="&#xc5;" horiz-adv-x="1556" 
d="M530 569v-569h-442v1106q0 17 4 49q22 132 74.5 199t161.5 104q55 17 161 17h641q82 0 138 -26t112 -89q48 -53 68 -108.5t20 -137.5v-1114h-442v569h-496zM813 1528q-110 1 -179 61t-69 140q0 81 69.5 141t180.5 59q103 0 184 -65q64 -54 63.5 -136t-65.5 -135
q-84 -65 -184 -65zM530 1092v-207h496v207h-496zM723 1729q0 -35 26.5 -61t63.5 -26q38 0 66 25q26 25 26 60.5t-26 60.5q-27 24 -64 24q-38 0 -64 -24.5t-28 -58.5z" />
    <glyph glyph-name="AE" unicode="&#xc6;" horiz-adv-x="2385" 
d="M530 569v-569h-442v1106q0 17 4 49q22 132 74.5 199t161.5 104q55 17 161 17h1809v-383h-832v-199h832v-281h-832v-229h832v-383h-1276v569h-492zM530 1092v-207h496v207h-496z" />
    <glyph glyph-name="Ccedilla" unicode="&#xc7;" horiz-adv-x="1480" 
d="M90 381q-2 10 -2 35v647q0 65 14 117q39 146 150 225q97 70 237 70h904v-383h-863v-709h863v-383h-987q-54 0 -111 23q-94 39 -145 125t-60 233zM758 -305h-111v229h277v-207q0 -104 -57.5 -173.5t-161.5 -92.5q-24 -6 -54 -6v143h19q73 9 86 86q0 3 1 10.5t1 10.5z" />
    <glyph glyph-name="Egrave" unicode="&#xc8;" horiz-adv-x="1449" 
d="M1362 383v-383h-1274v1475h1274v-383h-832v-199h832v-281h-832v-229h832zM870 1552h-254l-286 340h360z" />
    <glyph glyph-name="Eacute" unicode="&#xc9;" horiz-adv-x="1449" 
d="M1362 383v-383h-1274v1475h1274v-383h-832v-199h832v-281h-832v-229h832zM1145 1892l-293 -340h-252l201 340h344z" />
    <glyph glyph-name="Ecircumflex" unicode="&#xca;" horiz-adv-x="1449" 
d="M1362 383v-383h-1274v1475h1274v-383h-832v-199h832v-281h-832v-229h832zM750 1743l-109 -191h-274l243 338h277l241 -338h-274z" />
    <glyph glyph-name="Edieresis" unicode="&#xcb;" horiz-adv-x="1449" 
d="M1362 383v-383h-1274v1475h1274v-383h-832v-199h832v-281h-832v-229h832zM487 1540q-78 3 -130 53t-54 119q-2 72 52 125.5t134 54.5q86 0 142 -53q55 -53 54 -126.5t-58 -123.5q-62 -52 -140 -49zM1012 1540q-83 -3 -140 47.5t-59 122.5q-2 75 55 129t140 53
q77 0 135 -55q53 -51 53 -122t-53 -120q-55 -52 -131 -55z" />
    <glyph glyph-name="Igrave" unicode="&#xcc;" horiz-adv-x="618" 
d="M530 1475v-1475h-442v1475h442zM453 1552h-254l-287 340h360z" />
    <glyph glyph-name="Iacute" unicode="&#xcd;" horiz-adv-x="618" 
d="M530 1475v-1475h-442v1475h442zM737 1892l-293 -340h-251l200 340h344z" />
    <glyph glyph-name="Icircumflex" unicode="&#xce;" horiz-adv-x="618" 
d="M530 1475v-1475h-442v1475h442zM317 1743l-108 -191h-275l244 338h277l241 -338h-274z" />
    <glyph glyph-name="Idieresis" unicode="&#xcf;" horiz-adv-x="618" 
d="M530 1475v-1475h-442v1475h442zM53 1540q-78 3 -130 53t-54 119q-2 72 52 125.5t134 54.5q86 0 142 -53q55 -53 54 -126.5t-58 -123.5q-62 -52 -140 -49zM578 1540q-83 -3 -140 47.5t-59 122.5q-2 75 54.5 129t139.5 53q78 0 136 -55q53 -51 53 -122t-53 -120
q-55 -52 -131 -55z" />
    <glyph glyph-name="Ntilde" unicode="&#xd1;" horiz-adv-x="1658" 
d="M530 952v-952h-442v1475h563l477 -734v734h443v-1475h-443zM649 1550l-162 64q6 29 15 49q52 128 146.5 169t209.5 -11l31 -13l26 -12q20 -8 43 -18q65 -28 98 -18.5t64 63.5q1 3 3 8t3 8l162 -63q-16 -44 -18 -47q-52 -122 -130 -162t-186 -4q-18 4 -32 12l-25 10
l-35 14q-24 11 -47 23q-60 27 -96 14t-64 -73q-1 -2 -3 -6.5t-3 -6.5z" />
    <glyph glyph-name="Ograve" unicode="&#xd2;" horiz-adv-x="1660" 
d="M90 379q-2 12 -2 37v647q0 65 14 117q39 146 150 225q97 70 237 70h633h25q222 -13 324 -105t102 -274v-734q0 -38 -12 -81q-14 -57 -45 -105q-64 -94 -137 -135t-173 -41h-809q-45 0 -106 25q-93 41 -142.5 124.5t-58.5 229.5zM1004 1552h-254l-287 340h360zM530 1092
v-709h600v709h-600z" />
    <glyph glyph-name="Oacute" unicode="&#xd3;" horiz-adv-x="1660" 
d="M90 379q-2 12 -2 37v647q0 65 14 117q39 146 150 225q97 70 237 70h633h25q222 -13 324 -105t102 -274v-734q0 -38 -12 -81q-14 -57 -45 -105q-64 -94 -137 -135t-173 -41h-809q-45 0 -106 25q-93 41 -142.5 124.5t-58.5 229.5zM1272 1892l-293 -340h-252l201 340h344z
M530 1092v-709h600v709h-600z" />
    <glyph glyph-name="Ocircumflex" unicode="&#xd4;" horiz-adv-x="1660" 
d="M90 379q-2 12 -2 37v647q0 65 14 117q39 146 150 225q97 70 237 70h633h25q222 -13 324 -105t102 -274v-734q0 -38 -12 -81q-14 -57 -45 -105q-64 -94 -137 -135t-173 -41h-809q-45 0 -106 25q-93 41 -142.5 124.5t-58.5 229.5zM846 1743l-109 -191h-274l244 338h276
l242 -338h-275zM530 1092v-709h600v709h-600z" />
    <glyph glyph-name="Otilde" unicode="&#xd5;" horiz-adv-x="1660" 
d="M90 379q-2 12 -2 37v647q0 65 14 117q39 146 150 225q97 70 237 70h633h25q222 -13 324 -105t102 -274v-734q0 -38 -12 -81q-14 -57 -45 -105q-64 -94 -137 -135t-173 -41h-809q-45 0 -106 25q-93 41 -142.5 124.5t-58.5 229.5zM610 1550l-161 64q8 34 14 49
q52 128 146.5 169t209.5 -11l31 -13l27 -12q20 -8 43 -18q65 -28 97.5 -18.5t63.5 63.5q1 3 3 8t3 8l162 -63q-17 -44 -18 -47q-52 -122 -130 -162t-186 -4q-18 4 -32 12l-25 10l-35 14q-24 11 -47 23q-60 27 -96 14t-64 -73q-1 -2 -3 -6.5t-3 -6.5zM530 1092v-709h600v709
h-600z" />
    <glyph glyph-name="Odieresis" unicode="&#xd6;" horiz-adv-x="1660" 
d="M90 379q-2 12 -2 37v647q0 65 14 117q39 146 150 225q97 70 237 70h633h25q222 -13 324 -105t102 -274v-734q0 -38 -12 -81q-14 -57 -45 -105q-64 -94 -137 -135t-173 -41h-809q-45 0 -106 25q-93 41 -142.5 124.5t-58.5 229.5zM565 1552q-78 3 -130 53t-54 119
q-2 72 52 126t134 55q80 0 142 -56q55 -53 54 -126.5t-58 -120.5q-59 -53 -140 -50zM1087 1552q-82 -1 -138 48.5t-58 121.5q-2 75 54.5 129.5t139.5 53.5q81 -3 136 -58q53 -49 53 -120t-53 -121q-57 -51 -134 -54zM530 1092v-709h600v709h-600z" />
    <glyph glyph-name="multiply" unicode="&#xd7;" horiz-adv-x="1662" 
d="M334 438l299 299l-299 297l209 209l297 -299l297 299l209 -209l-299 -299l299 -297l-207 -207l-299 297l-297 -297z" />
    <glyph glyph-name="Oslash" unicode="&#xd8;" horiz-adv-x="1660" 
d="M90 381q-2 10 -2 35v647q0 65 14 117q39 146 150 225q97 70 237 70h633q77 0 205 -29l35 -8l22 -4l101 118l47 -43l-94 -106q8 -11 18 -21q70 -76 93.5 -132t23.5 -154v-734q0 -38 -12 -81q-14 -57 -45 -105q-64 -94 -137 -135t-173 -41h-809q-43 0 -102 23q-10 3 -25 10
l-94 -96l-41 34l82 97l-10 10l-8 6q-98 98 -109 297zM1126 1044l-559 -659l563 -2zM528 1092v-662l566 662h-566z" />
    <glyph glyph-name="Ugrave" unicode="&#xd9;" horiz-adv-x="1665" 
d="M90 377q0 7 -1 20t-1 19v1059h442v-1092h605v1092h442v-1067q0 -84 -21 -146t-71 -125q-106 -137 -228 -137h-782q-76 0 -105.5 4.5t-78.5 24.5q-94 40 -142.5 120t-58.5 228zM983 1552h-254l-287 340h361z" />
    <glyph glyph-name="Uacute" unicode="&#xda;" horiz-adv-x="1665" 
d="M90 377q0 7 -1 20t-1 19v1059h442v-1092h605v1092h442v-1067q0 -84 -21 -146t-71 -125q-106 -137 -228 -137h-782q-76 0 -105.5 4.5t-78.5 24.5q-94 40 -142.5 120t-58.5 228zM1282 1892l-293 -340h-252l201 340h344z" />
    <glyph glyph-name="Ucircumflex" unicode="&#xdb;" horiz-adv-x="1665" 
d="M90 377q0 7 -1 20t-1 19v1059h442v-1092h605v1092h442v-1067q0 -84 -21 -146t-71 -125q-106 -137 -228 -137h-782q-76 0 -105.5 4.5t-78.5 24.5q-94 40 -142.5 120t-58.5 228zM856 1743l-108 -191h-275l244 338h276l242 -338h-274z" />
    <glyph glyph-name="Udieresis" unicode="&#xdc;" horiz-adv-x="1665" 
d="M90 377q0 7 -1 20t-1 19v1059h442v-1092h605v1092h442v-1067q0 -84 -21 -146t-71 -125q-106 -137 -228 -137h-782q-76 0 -105.5 4.5t-78.5 24.5q-94 40 -142.5 120t-58.5 228zM588 1550q-78 3 -130.5 53t-54.5 119q-2 72 52.5 126t136.5 55q82 0 141 -56
q54 -51 52.5 -126t-58.5 -122q-58 -52 -139 -49zM1112 1550q-82 -3 -139.5 47.5t-59.5 122.5q-2 75 55 129.5t140 53.5q82 -3 137 -58q51 -49 50.5 -119.5t-52.5 -119.5q-60 -53 -131 -56z" />
    <glyph glyph-name="germandbls" unicode="&#xdf;" horiz-adv-x="1519" 
d="M301 -354h-213v354h88v545h-88v178h88v446q0 95 33 158.5t102 104.5q67 43 168 43h602q156 0 252 -93q90 -90 90 -194v-174q0 -123 -149 -246q-4 -4 -8.5 -7.5t-10 -7t-8.5 -5.5q6 -3 18.5 -10.5t18.5 -10.5q148 -90 148 -219v-189q0 -95 -79.5 -185.5t-205.5 -123.5
q-36 -10 -88 -10h-309v369h211v256h-209v254h211v258l-359 -4v-1285q0 -82 -63 -139q-32 -29 -69.5 -38.5t-152.5 -22.5q-6 -2 -18 -2z" />
    <glyph glyph-name="agrave" unicode="&#xe0;" horiz-adv-x="1474" 
d="M205 96q-61 57 -89 117t-28 135v391q0 31 2 45q18 142 119 230q89 78 188 78h340q69 0 105.5 -15t79.5 -59l16 -17l2 -2v93h444v-723h91v-369h-314q-58 0 -114 33q-39 19 -82 73l-17 21l-8 14l-10 -16q-6 -11 -12 -19q-39 -58 -84.5 -82t-112.5 -24h-272q-76 0 -131 21.5
t-113 74.5zM926 1184h-254l-287 340h360zM516 723v-354h442v354h-442z" />
    <glyph glyph-name="aacute" unicode="&#xe1;" horiz-adv-x="1474" 
d="M205 96q-61 57 -89 117t-28 135v391q0 31 2 45q18 142 119 230q89 78 188 78h340q69 0 105.5 -15t79.5 -59l16 -17l2 -2v93h444v-723h91v-369h-314q-58 0 -114 33q-39 19 -82 73l-17 21l-8 14l-10 -16q-6 -11 -12 -19q-39 -58 -84.5 -82t-112.5 -24h-272q-76 0 -131 21.5
t-113 74.5zM1196 1524l-293 -340h-252l201 340h344zM516 723v-354h442v354h-442z" />
    <glyph glyph-name="acircumflex" unicode="&#xe2;" horiz-adv-x="1474" 
d="M205 96q-61 57 -89 117t-28 135v391q0 31 2 45q18 142 119 230q89 78 188 78h340q69 0 105.5 -15t79.5 -59l16 -17l2 -2v93h444v-723h91v-369h-314q-58 0 -114 33q-39 19 -82 73l-17 21l-8 14l-10 -16q-6 -11 -12 -19q-39 -58 -84.5 -82t-112.5 -24h-272q-76 0 -131 21.5
t-113 74.5zM793 1374l-109 -190h-274l243 338h277l241 -338h-274zM516 723v-354h442v354h-442z" />
    <glyph glyph-name="atilde" unicode="&#xe3;" horiz-adv-x="1474" 
d="M205 96q-61 57 -89 117t-28 135v391q0 31 2 45q18 142 119 230q89 78 188 78h340q69 0 105.5 -15t79.5 -59l16 -17l2 -2v93h444v-723h91v-369h-314q-58 0 -114 33q-39 19 -82 73l-17 21l-8 14l-10 -16q-6 -11 -12 -19q-39 -58 -84.5 -82t-112.5 -24h-272q-76 0 -131 21.5
t-113 74.5zM551 1182l-162 63q8 34 14 49q52 128 147 169t210 -11l31 -12l26 -13q20 -8 43 -18q65 -28 98 -18.5t64 63.5q1 3 3 8t3 8l162 -63q-14 -36 -19 -47q-52 -122 -129.5 -162t-185.5 -4q-20 4 -33 12l-24 11l-35 14q-24 10 -47 22q-60 27 -96 14t-64 -73zM516 723
v-354h442v354h-442z" />
    <glyph glyph-name="adieresis" unicode="&#xe4;" horiz-adv-x="1562" 
d="M205 96q-61 57 -89 117t-28 135v391q0 31 2 45q18 142 119 230q89 78 188 78h340q69 0 105.5 -15t79.5 -59l16 -17l2 -2v93h444v-723h91v-369h-314q-58 0 -114 33q-39 19 -82 73l-17 21l-8 14l-10 -16q-6 -11 -12 -19q-39 -58 -84.5 -82t-112.5 -24h-272q-76 0 -131 21.5
t-113 74.5zM514 1171q-78 3 -130 53t-54 119q-2 72 52 126t136 55q84 0 141 -54q54 -52 52.5 -126t-58.5 -123q-60 -53 -139 -50zM1038 1171q-82 -3 -139 47.5t-59 122.5q-2 75 54.5 129.5t139.5 53.5q78 0 137 -56q51 -51 50.5 -121.5t-52.5 -119.5q-53 -53 -131 -56z
M516 723v-354h442v354h-442z" />
    <glyph glyph-name="aring" unicode="&#xe5;" horiz-adv-x="1562" 
d="M205 96q-61 57 -89 117t-28 135v391q0 31 2 45q18 142 119 230q89 78 188 78h340q69 0 105.5 -15t79.5 -59l16 -17l2 -2v93h444v-723h91v-369h-314q-58 0 -114 33q-39 19 -82 73l-17 21l-8 14l-10 -16q-6 -11 -12 -19q-39 -58 -84.5 -82t-112.5 -24h-272q-76 0 -131 21.5
t-113 74.5zM776 1184q-111 0 -179.5 59.5t-68.5 140.5q-2 80 68.5 141t181.5 60q106 0 185 -67q64 -53 63.5 -135.5t-65.5 -135.5q-81 -63 -185 -63zM516 723v-354h442v354h-442zM686 1384q-1 -35 24.5 -59.5t65.5 -26.5q38 0 66 25q26 25 26 59.5t-26 59.5q-29 26 -64 26
q-38 0 -65 -25t-27 -59z" />
    <glyph glyph-name="ae" unicode="&#xe6;" horiz-adv-x="2336" 
d="M205 96q-61 57 -89 117t-28 135v391q0 31 2 45q18 142 119 230q89 78 188 78h340q55 0 84 -7.5t60 -29.5q61 -45 86 -123q8 -23 10 -37q18 52 51 94q43 49 89 70.5t134 30.5q12 2 35 2h676q23 0 33 -2q66 -3 105.5 -18.5t80.5 -55.5q68 -65 68 -164v-387h-848v-96h665
v-369h-751h-96q-27 0 -80 27q-76 37 -129 120q-26 43 -37 70v-217h-524q-75 0 -130 21.5t-114 74.5zM1401 723v-96h422v96h-422zM516 723v-354h442v354h-442z" />
    <glyph glyph-name="ccedilla" unicode="&#xe7;" horiz-adv-x="1165" 
d="M215 49q-71 55 -99 123.5t-28 196.5v422q0 94 59 172q97 129 252 129h676v-369h-559v-354h561v-369h-647h-96q-27 0 -80 27q-17 7 -39 22zM598 -305h-109v229h277v-207q0 -104 -57.5 -173.5t-161.5 -92.5q-27 -6 -53 -6v143h18q73 9 86 86q0 2 0.5 6.5t0.5 8t-1 6.5z" />
    <glyph glyph-name="egrave" unicode="&#xe8;" horiz-adv-x="1452" 
d="M215 49q-71 55 -99 124t-28 198v420q0 94 59 172q97 129 254 129h676q23 0 33 -2q66 -3 105.5 -18.5t80.5 -55.5q68 -65 68 -164v-387h-848v-96h666v-369h-752h-96q-27 0 -80 27q-17 7 -39 22zM870 1184h-254l-286 340h360zM516 723v-96h422v96h-422z" />
    <glyph glyph-name="eacute" unicode="&#xe9;" horiz-adv-x="1452" 
d="M215 49q-71 55 -99 124t-28 198v420q0 94 59 172q97 129 254 129h676q23 0 33 -2q66 -3 105.5 -18.5t80.5 -55.5q68 -65 68 -164v-387h-848v-96h666v-369h-752h-96q-27 0 -80 27q-17 7 -39 22zM1176 1524l-293 -340h-252l200 340h345zM516 723v-96h422v96h-422z" />
    <glyph glyph-name="ecircumflex" unicode="&#xea;" horiz-adv-x="1452" 
d="M215 49q-71 55 -99 124t-28 198v420q0 94 59 172q97 129 254 129h676q23 0 33 -2q66 -3 105.5 -18.5t80.5 -55.5q68 -65 68 -164v-387h-848v-96h666v-369h-752h-96q-27 0 -80 27q-17 7 -39 22zM748 1374l-109 -190h-274l243 338h277l241 -338h-274zM516 723v-96h422v96
h-422z" />
    <glyph glyph-name="edieresis" unicode="&#xeb;" horiz-adv-x="1452" 
d="M215 49q-71 55 -99 124t-28 198v420q0 94 59 172q97 129 254 129h676q23 0 33 -2q66 -3 105.5 -18.5t80.5 -55.5q68 -65 68 -164v-387h-848v-96h666v-369h-752h-96q-27 0 -80 27q-17 7 -39 22zM496 1171q-78 3 -130.5 53t-54.5 119q-2 72 52.5 126t134.5 55q84 0 141 -54
q55 -53 54 -126t-58 -123q-63 -53 -139 -50zM1020 1171q-83 -3 -140 47.5t-59 122.5q-2 75 55 129.5t140 53.5q76 0 135 -56q53 -51 53 -121.5t-53 -119.5q-56 -53 -131 -56zM516 723v-96h422v96h-422z" />
    <glyph glyph-name="igrave" unicode="&#xec;" 
d="M516 1092v-1092h-428v1092h428zM442 1184h-254l-286 340h360z" />
    <glyph glyph-name="iacute" unicode="&#xed;" 
d="M516 1092v-1092h-428v1092h428zM731 1524l-293 -340h-252l201 340h344z" />
    <glyph glyph-name="icircumflex" unicode="&#xee;" 
d="M516 1092v-1092h-428v1092h428zM309 1374l-108 -190h-275l244 338h276l242 -338h-274z" />
    <glyph glyph-name="idieresis" unicode="&#xef;" 
d="M516 1092v-1092h-428v1092h428zM47 1171q-78 3 -130 53t-54 119q-2 72 52 126t134 55q84 0 141 -54q55 -53 54 -126t-58 -123q-63 -53 -139 -50zM571 1171q-83 -3 -139.5 47.5t-58.5 122.5q-2 75 54.5 129.5t139.5 53.5q76 0 135 -56q52 -51 52 -121.5t-52 -119.5
q-56 -53 -131 -56z" />
    <glyph glyph-name="ntilde" unicode="&#xf1;" horiz-adv-x="1452" 
d="M516 723v-723h-428v1092h428v-146q27 67 113 111q10 7 30 14q58 21 138 21h307q53 0 117 -37q143 -80 143 -250v-436h88v-369h-264q-67 0 -116.5 27t-90.5 88q-45 62 -45 176v432h-420zM528 1182l-161 63q8 34 14 49q52 128 146.5 169t209.5 -11l31 -12l27 -13
q20 -8 43 -18q65 -28 97.5 -18.5t63.5 63.5q1 3 3.5 8t3.5 8l161 -63q-16 -44 -18 -47q-52 -122 -129.5 -162t-185.5 -4q-19 4 -33 12l-25 11l-35 14q-24 10 -47 22q-60 27 -95.5 14t-63.5 -73q-1 -2 -3.5 -6t-3.5 -6z" />
    <glyph glyph-name="ograve" unicode="&#xf2;" horiz-adv-x="1404" 
d="M229 63q-141 104 -141 271v416q0 72 19 124t65 103q55 61 123 88t172 27h545q104 0 178 -58q71 -56 99 -115t28 -155v-416q0 -87 -15 -135.5t-53 -95.5q-52 -64 -115 -90.5t-173 -26.5h-551q-100 0 -181 63zM840 1184h-254l-287 340h360zM516 723v-354h373v354h-373z" />
    <glyph glyph-name="oacute" unicode="&#xf3;" horiz-adv-x="1404" 
d="M229 63q-141 104 -141 271v416q0 72 19 124t65 103q55 61 123 88t172 27h545q104 0 178 -58q71 -56 99 -115t28 -155v-416q0 -87 -15 -135.5t-53 -95.5q-52 -64 -115 -90.5t-173 -26.5h-551q-100 0 -181 63zM1137 1524l-293 -340h-252l201 340h344zM516 723v-354h373v354
h-373z" />
    <glyph glyph-name="ocircumflex" unicode="&#xf4;" horiz-adv-x="1404" 
d="M229 63q-141 104 -141 271v416q0 72 19 124t65 103q55 61 123 88t172 27h545q104 0 178 -58q71 -56 99 -115t28 -155v-416q0 -87 -15 -135.5t-53 -95.5q-52 -64 -115 -90.5t-173 -26.5h-551q-100 0 -181 63zM725 1374l-109 -190h-274l244 338h276l242 -338h-275zM516 723
v-354h373v354h-373z" />
    <glyph glyph-name="otilde" unicode="&#xf5;" horiz-adv-x="1404" 
d="M229 63q-141 104 -141 271v416q0 72 19 124t65 103q55 61 123 88t172 27h545q104 0 178 -58q71 -56 99 -115t28 -155v-416q0 -87 -15 -135.5t-53 -95.5q-52 -64 -115 -90.5t-173 -26.5h-551q-100 0 -181 63zM506 1182l-162 63q8 34 14 49q52 128 147 169t210 -11l30 -12
l27 -13q20 -8 43 -18q65 -28 98 -18.5t64 63.5q1 3 3 8t3 8l162 -63q-14 -36 -19 -47q-52 -122 -129.5 -162t-185.5 -4q-20 4 -33 12l-24 11l-35 14q-24 10 -47 22q-60 27 -96 14t-64 -73zM516 723v-354h373v354h-373z" />
    <glyph glyph-name="odieresis" unicode="&#xf6;" horiz-adv-x="1404" 
d="M229 63q-141 104 -141 271v416q0 72 19 124t65 103q55 61 123 88t172 27h545q104 0 178 -58q71 -56 99 -115t28 -155v-416q0 -87 -15 -135.5t-53 -95.5q-52 -64 -115 -90.5t-173 -26.5h-551q-100 0 -181 63zM465 1171q-78 3 -130 53t-54 119q-2 72 52 126t134 55
q84 0 141 -54q55 -53 54 -126t-58 -123q-63 -53 -139 -50zM989 1171q-83 -3 -139.5 47.5t-58.5 122.5q-2 75 54.5 129.5t139.5 53.5q79 0 135 -56q52 -51 52 -121.5t-52 -119.5q-56 -53 -131 -56zM516 723v-354h373v354h-373z" />
    <glyph glyph-name="oslash" unicode="&#xf8;" horiz-adv-x="1409" 
d="M90 291q-2 14 -2 43v416q0 72 19 124t65 103q55 61 123 88t172 27h545q6 0 19.5 -1t19.5 -1q90 -11 135 -56l92 94l43 -43l-90 -90q86 -77 86 -231v-416q0 -87 -15 -135.5t-53 -95.5q-52 -64 -115 -90.5t-173 -26.5h-551q-40 0 -70.5 8.5t-77.5 32.5l-31 14l-104 -92
l-37 43l92 88q-39 32 -61 77.5t-31 119.5zM887 674l-326 -303l326 -2v305zM516 725v-317l338 317h-338z" />
    <glyph glyph-name="ugrave" unicode="&#xf9;" horiz-adv-x="1447" 
d="M88 723h-88v369h281q81 0 141 -54q49 -44 68 -85.5t24 -112.5q2 -14 2 -39v-432h416v723h428v-1092h-428v150q-19 -49 -61.5 -86t-102.5 -54q-31 -10 -96 -10h-310q-58 0 -122 37q-79 44 -115.5 104t-36.5 144v438zM860 1184h-254l-287 340h361z" />
    <glyph glyph-name="uacute" unicode="&#xfa;" horiz-adv-x="1447" 
d="M88 723h-88v369h281q81 0 141 -54q49 -44 68 -85.5t24 -112.5q2 -14 2 -39v-432h416v723h428v-1092h-428v150q-19 -49 -61.5 -86t-102.5 -54q-31 -10 -96 -10h-310q-58 0 -122 37q-79 44 -115.5 104t-36.5 144v438zM1155 1524l-293 -340h-252l201 340h344z" />
    <glyph glyph-name="ucircumflex" unicode="&#xfb;" horiz-adv-x="1447" 
d="M88 723h-88v369h281q81 0 141 -54q49 -44 68 -85.5t24 -112.5q2 -14 2 -39v-432h416v723h428v-1092h-428v150q-19 -49 -61.5 -86t-102.5 -54q-31 -10 -96 -10h-310q-58 0 -122 37q-79 44 -115.5 104t-36.5 144v438zM754 1374l-109 -190h-274l243 338h277l242 -338h-275z
" />
    <glyph glyph-name="udieresis" unicode="&#xfc;" horiz-adv-x="1536" 
d="M176 723h-88v369h281q81 0 141 -54q49 -44 68 -85.5t24 -112.5q2 -14 2 -39v-432h416v723h428v-1092h-428v150q-19 -49 -61.5 -86t-102.5 -54q-31 -10 -96 -10h-309q-59 0 -123 37q-79 44 -115.5 104t-36.5 144v438zM535 1171q-77 3 -130 53.5t-53 118.5q-2 72 51.5 126
t135.5 55q84 0 141 -54q54 -53 53 -126t-57 -123q-63 -53 -141 -50zM1059 1171q-82 -3 -139.5 47.5t-59.5 122.5q-3 75 54 129.5t141 53.5q78 0 137 -56q52 -51 51.5 -121t-53.5 -120q-53 -53 -131 -56z" />
    <glyph glyph-name="ydieresis" unicode="&#xff;" horiz-adv-x="1226" 
d="M164 0h276l-471 1092h420l234 -625l206 625h406l-520 -1278q-24 -57 -62 -95q-41 -40 -84.5 -56.5t-107.5 -16.5h-297v354zM367 1171q-78 3 -130.5 53t-54.5 119q-2 72 52.5 126t134.5 55q84 0 141 -54q55 -53 54 -126t-58 -123q-63 -53 -139 -50zM891 1171
q-83 -3 -140 47.5t-59 122.5q-2 75 55 129.5t140 53.5q76 0 135 -56q52 -51 52 -121.5t-52 -119.5q-56 -53 -131 -56z" />
    <glyph glyph-name="dotlessi" unicode="&#x131;" 
d="M516 1092v-1092h-428v1092h428z" />
    <glyph glyph-name="OE" unicode="&#x152;" horiz-adv-x="2492" 
d="M90 379q-2 12 -2 37v647q0 65 14 117q39 146 150 225q97 70 237 70h1915v-383h-831v-199h831v-281h-831v-229h831v-383h-2007q-45 0 -106 25q-93 41 -142.5 124.5t-58.5 229.5zM530 1092v-709h600v709h-600z" />
    <glyph glyph-name="oe" unicode="&#x153;" horiz-adv-x="2258" 
d="M229 63q-141 104 -141 271v416q0 72 19 124t65 103q55 61 123 88t172 27h545q59 0 78 -8t28 -37q28 45 88 45h676q23 0 33 -2q67 -3 107 -19t79 -55q70 -67 70 -164v-387h-850v-96h668v-369h-754q-53 0 -80 10.5t-49 38.5q-3 -3 -9.5 -9t-9.5 -9q-24 -18 -49.5 -24.5
t-76.5 -6.5h-551q-100 0 -181 63zM516 723v-354h373v354h-373zM1321 723v-96h422v96h-422z" />
    <glyph glyph-name="Ydieresis" unicode="&#x178;" horiz-adv-x="1546" 
d="M535 0v526l-582 949h528l312 -592l272 592h528l-577 -949v-526h-481zM530 1540q-78 3 -130 53t-54 119q-2 72 52 125.5t134 54.5q86 0 142 -53q55 -53 54 -126.5t-58 -123.5q-62 -52 -140 -49zM1055 1540q-83 -3 -140 47.5t-59 122.5q-2 75 55 129t140 53q77 0 135 -55
q52 -51 52 -122t-52 -120q-55 -52 -131 -55z" />
    <glyph glyph-name="florin" unicode="&#x192;" horiz-adv-x="888" 
d="M207 -354h-213l49 354h88l78 545h-88l24 178h88q33 223 64 446q14 95 54.5 158.5t115.5 104.5q76 43 174 43h272l-47 -342h-147l-57 -410h147l-25 -178h-147q-47 -350 -98 -697q-2 -23 -31 -79q-33 -61 -76 -84.5t-137 -30.5z" />
    <glyph glyph-name="circumflex" unicode="&#x2c6;" horiz-adv-x="761" 
d="M383 1374l-109 -190h-274l244 338h276l242 -338h-275z" />
    <glyph glyph-name="caron" unicode="&#x2c7;" horiz-adv-x="761" 
d="M520 1184h-276l-244 338h274l109 -191l104 191h275z" />
    <glyph glyph-name="breve" unicode="&#x2d8;" horiz-adv-x="722" 
d="M115 1280q-102 94 -115 238h242q-22 -60 15 -112t101 -52q63 0 100 52t17 112h248q-4 -67 -34.5 -129.5t-80.5 -108.5q-104 -97 -246.5 -97t-246.5 97z" />
    <glyph glyph-name="ring" unicode="&#x2da;" horiz-adv-x="499" 
d="M250 1184q-111 0 -180.5 60t-69.5 140q0 81 70 141.5t182 59.5q103 0 182 -67q65 -52 64.5 -135.5t-66.5 -135.5q-78 -63 -182 -63zM160 1384q-1 -35 24.5 -59.5t63.5 -26.5q40 0 65 25q26 25 26 59.5t-26 59.5q-26 26 -63 26q-38 0 -64 -25t-26 -59z" />
    <glyph glyph-name="tilde" unicode="&#x2dc;" horiz-adv-x="800" 
d="M162 1182l-162 63q8 34 14 49q52 128 147 169t210 -11l30 -12l27 -13q20 -8 43 -18q65 -28 98 -18.5t64 63.5q1 3 3 8t3 8l162 -63q-13 -36 -19 -47q-52 -122 -129.5 -162t-185.5 -4q-20 4 -33 12l-24 11l-35 14q-24 10 -47 22q-60 27 -96 14t-64 -73z" />
    <glyph glyph-name="endash" unicode="&#x2013;" horiz-adv-x="1660" 
d="M1399 879v-293h-1137v293h1137z" />
    <glyph glyph-name="emdash" unicode="&#x2014;" horiz-adv-x="1716" 
d="M1628 797v-295h-1540v295h1540z" />
    <glyph glyph-name="quoteleft" unicode="&#x2018;" 
d="M516 1221v-369h-428v461q0 41 25 79t71 62q40 21 103 21h229v-129h-266v-125h266z" />
    <glyph glyph-name="quoteright" unicode="&#x2019;" 
d="M317 852h-229v129h266v125h-266v369h428v-461q0 -41 -26 -79.5t-72 -64.5q-32 -18 -101 -18z" />
    <glyph glyph-name="quotesinglbase" unicode="&#x201a;" 
d="M317 -254h-229v129h266v125h-266v369h428v-461q0 -41 -26 -79.5t-72 -64.5q-32 -18 -101 -18z" />
    <glyph glyph-name="guilsinglleft" unicode="&#x2039;" horiz-adv-x="856" 
d="M768 139l-334 -88l-346 522l326 486l331 -88l-268 -398z" />
    <glyph glyph-name="guilsinglright" unicode="&#x203a;" horiz-adv-x="856" 
d="M111 139l268 398l-291 434l334 88l346 -522l-326 -486z" />
    <glyph glyph-name="Euro" unicode="&#x20ac;" horiz-adv-x="1662" 
d="M1223 821l-74 -174h-436v-264h862v-383h-987q-54 0 -111 23q-94 39 -145 125t-60 233q-2 10 -2 35v231h-182l74 174h108v242q0 61 15 117q40 147 149 225q97 70 238 70h903v-383h-862v-271h510z" />
    <glyph glyph-name="Euro_master1" unicode="&#xec04;" horiz-adv-x="1662" 
d="M272 381q-2 10 -2 35v647q0 61 15 117q40 147 149 225q97 70 238 70h903v-383h-862v-709h862v-383h-987q-54 0 -111 23q-94 39 -145 125t-60 233zM1223 821l-74 -174h-1061l74 174h1061z" />
    <glyph glyph-name="Euro.alt" horiz-adv-x="1607" 
d="M1520 1190l-60 -125q-78 96 -200 152.5t-271 56.5q-188 0 -332 -110t-192 -279h911l-61 -129h-879q-4 -54 -4 -68q0 -15 4 -61h819l-61 -129h-729q56 -182 201 -288t344 -106q136 0 254 54.5t196 148.5v-174q-83 -67 -207 -112.5t-254 -45.5q-249 0 -436.5 141.5
t-243.5 381.5h-231l62 129h145q-2 27 -2 63q0 39 2 66h-207l62 129h169q56 240 245 379t446 139q148 0 287.5 -58t222.5 -155z" />
  </font>
</defs>
</svg>
